<?xml version="1.0" encoding="UTF-8"?>
<!DOCTYPE svg PUBLIC "-//W3C//DTD SVG 1.1//EN" "http://www.w3.org/Graphics/SVG/1.1/DTD/svg11.dtd">
<!-- Creator: CorelDRAW -->
<svg xmlns="http://www.w3.org/2000/svg" xml:space="preserve" width="6.82666in" height="6.82666in" style="shape-rendering:geometricPrecision; text-rendering:geometricPrecision; image-rendering:optimizeQuality; fill-rule:evenodd; clip-rule:evenodd"
viewBox="0 0 6.82666 6.82666"
 xmlns:xlink="http://www.w3.org/1999/xlink">
 <defs>
  <style type="text/css">
   <![CDATA[
    .fil0 {fill:#3F51B5}
    .fil1 {fill:#FFFFFE}
    .fil2 {fill:#FFFFFE;fill-rule:nonzero}
   ]]>
  </style>
 </defs>
 <g id="Layer_x0020_1">
  <metadata id="CorelCorpID_0Corel-Layer"/>
  <rect class="fil0" width="6.82666" height="6.82666" rx="0.853335" ry="0.853335"/>
  <path class="fil1" d="M4.52244 1.75278c-0.00218504,-0.00164567 -0.00438583,-0.00326772 -0.00661024,-0.00486614 -0.008,-0.00575197 -0.0161929,-0.0112362 -0.0245197,-0.0164961 -0.0252953,-0.0159685 -0.0522913,-0.0301575 -0.0803701,-0.040563 -0.35602,-0.131969 -0.78815,0.0552874 -1.09484,0.234858 -0.261913,0.153354 -0.507543,0.342189 -0.733854,0.54398 -0.0948937,0.0846063 -0.103339,0.231244 -0.0186772,0.326122 0.0350669,0.0392953 0.0820394,0.0653386 0.133992,0.0740709 0.0693386,0.0116575 0.139642,-0.00859449 0.192122,-0.0554016 0.127858,-0.114016 0.26024,-0.223559 0.399441,-0.323516l0.295776 -0.21239 -0.134429 0.338409c-0.0517638,0.130315 -0.101705,0.261677 -0.143673,0.39552 -0.0730039,0.232787 -0.114827,0.472579 -0.148921,0.713685 -0.00299606,0.0212126 -0.00601181,0.0424213 -0.00903543,0.0636299 -0.0169134,0.118559 -0.0341142,0.237083 -0.052815,0.355382 -0.0118425,0.0749094 -0.0228858,0.150047 -0.0394488,0.224106l-0.00370079 0.0165709 -0.537484 0.905378c-0.0825472,0.139051 -0.0363504,0.320441 0.102811,0.402886 0.0312047,0.0184843 0.0655354,0.0311535 0.101311,0.0371693 0.119728,0.020126 0.23965,-0.0354961 0.301618,-0.139917l0.560197 -0.943953c0.0151693,-0.025563 0.0264252,-0.0533858 0.0332598,-0.082315l0.12224 -0.517339 0.252996 0.602189 0.109799 1.09209c0.0132756,0.132059 0.112496,0.240177 0.24374,0.262244 0.025248,0.00424409 0.0509764,0.00512992 0.0764606,0.00267323 0.160051,-0.0154528 0.281256,-0.159461 0.265142,-0.320165l-0.114004 -1.13675c-0.0029685,-0.0295591 -0.0100866,-0.0587402 -0.0216024,-0.0861457l-0.343551 -0.817736 0.0265079 -0.0458583c0.0090748,-0.0157008 0.0170787,-0.0319764 0.0237677,-0.0488386l0.340031 -0.85711 0.112295 0.174713c0.0462087,0.0719016 0.0951181,0.142 0.147276,0.20972 0.129772,0.1685 0.27726,0.322787 0.432319,0.468071 0.109535,0.102634 0.317421,0.0541142 0.372039,-0.0850512 0.0343189,-0.0874449 0.0121969,-0.187764 -0.0564173,-0.252102 -0.136598,-0.128098 -0.266772,-0.263689 -0.381142,-0.412205 -0.0851457,-0.110563 -0.159484,-0.227831 -0.228378,-0.349067 -0.0234724,-0.0413071 -0.0464213,-0.0829055 -0.0693701,-0.124496 -0.0752283,-0.136346 -0.15213,-0.271815 -0.237146,-0.402362 -0.00853937,-0.0131063 -0.02,-0.0255118 -0.030311,-0.0372283 -0.0405748,-0.0461181 -0.0831693,-0.0930945 -0.132634,-0.129917 -0.000740157,-0.000551181 -0.00147244,-0.00111417 -0.00220472,-0.00167717z"/>
  <path class="fil1" d="M5.08298 1.36165l0.00323228 -0.0192244c0.0198346,-0.117992 -0.00733071,-0.237756 -0.0767598,-0.335252 -0.0694449,-0.0975118 -0.173575,-0.16272 -0.29165,-0.182571 -0.118083,-0.0198504 -0.237807,0.00770866 -0.335323,0.0771575 -0.0975157,0.0694449 -0.16272,0.173583 -0.182571,0.291665 -0.0198504,0.118083 0.00770472,0.237811 0.0771575,0.335327 0.0694331,0.0975039 0.173748,0.162315 0.29174,0.182154l0.0192244 0.00323228c0.111752,0.0139055 0.223823,-0.0143189 0.316028,-0.0799882 0.0922126,-0.0656654 0.15552,-0.162343 0.178921,-0.2725z"/>
  <g id="_215579840">
   <path id="_215580008" class="fil2" d="M2.98671 3.40759l0.0426614 -0.0675079 -1.20992 -0.765004c-0.0334528,-0.0211535 -0.0726181,-0.0266811 -0.108748,-0.0185394 -0.0361299,0.00813386 -0.0691417,0.0299331 -0.0903031,0.0634055l-0.0738622 0.116823 1.44413 0.92311c0.00174409,0.00110236 0.00340945,0.00228346 0.00499606,0.0035315l0.0760591 -0.120291c0.000913386,-0.00127165 0.00179134,-0.00257087 0.0026378,-0.00390551l-0.000122047 -7.48031e-005 -0.000106299 -6.69291e-005 -0.0673937 -0.0426024 0.0675079 0.0426614c0.0211417,-0.0334567 0.0266732,-0.0726102 0.0185315,-0.108736 -0.00764567,-0.0339567 -0.0273622,-0.0651654 -0.0574921,-0.0863583 -0.00186614,-0.00142126 -0.00380315,-0.00278346 -0.00582677,-0.00405906l-7.48031e-005 0.00011811 -7.87402e-006 -3.93701e-006 -0.0213268 0.033748 -0.0213425 0.033752zm-1.50333 -0.570949l-0.310579 0.491217c-0.0211535,0.0334528 -0.0266772,0.0726181 -0.0185394,0.108748 0.00813386,0.0361299 0.0299291,0.0691417 0.0634055,0.0903071l1.20992 0.765004c0.0334488,0.0211496 0.0726142,0.0266772 0.108748,0.0185354 0.0361299,-0.00813386 0.0691417,-0.0299291 0.0903071,-0.0634016l0.306209 -0.484291c-0.00179921,-0.000897638 -0.0035748,-0.00188583 -0.00531102,-0.00298819l-1.44416 -0.92313z"/>
   <path id="_215579576" class="fil2" d="M2.16359 2.98163l0.351008 0.221933c0.0277992,0.0175709 0.0603543,0.0221693 0.0904094,0.0153937 0.0300433,-0.00677165 0.0574961,-0.0248898 0.0750906,-0.0527047l0.11022 -0.174323 0.00011811 7.48031e-005c0.00152756,-0.00241339 0.00290551,-0.00488189 0.00414567,-0.00738583 0.0140236,-0.0261102 0.0173346,-0.0556614 0.0111417,-0.0831142 -0.00675984,-0.0300394 -0.0248583,-0.0574724 -0.0526772,-0.0750709l7.48031e-005 -0.000122047c-0.00133071,-0.000846457 -0.00268504,-0.0016378 -0.00405118,-0.0023937l-0.347055 -0.219441c-0.0278071,-0.0175866 -0.0603622,-0.0221575 -0.0904134,-0.0153976 -0.0300551,0.00677559 -0.0575157,0.0248898 -0.0750945,0.0527087l-0.110228 0.174335c-0.0175866,0.0278071 -0.0221575,0.0603622 -0.0153976,0.0904134 0.00677559,0.0300512 0.0248937,0.0575157 0.0527087,0.0750945zm0.402748 0.065685l-0.283811 -0.179449 0.0677402 -0.107142 0.283811 0.179449 -0.0677402 0.107142z"/>
  </g>
 </g>
</svg>
